<mxfile host="Electron" modified="2023-05-27T07:07:22.913Z" agent="Mozilla/5.0 (Macintosh; Intel Mac OS X 10_15_7) AppleWebKit/537.36 (KHTML, like Gecko) draw.io/21.2.8 Chrome/112.0.5615.165 Electron/24.2.0 Safari/537.36" etag="5-nayfpeTZEbrzABf97l" version="21.2.8" type="device">
  <diagram name="페이지-1" id="2XyIOkooZ01RCbGRxyGt">
    <mxGraphModel dx="1114" dy="978" grid="1" gridSize="10" guides="1" tooltips="1" connect="1" arrows="1" fold="1" page="1" pageScale="1" pageWidth="800" pageHeight="600" math="0" shadow="0">
      <root>
        <mxCell id="0" />
        <mxCell id="1" parent="0" />
        <mxCell id="uQDy2xBUUUFpqw2zqvzs-1" value="" style="rounded=0;whiteSpace=wrap;html=1;" vertex="1" parent="1">
          <mxGeometry width="800" height="600" as="geometry" />
        </mxCell>
        <mxCell id="uQDy2xBUUUFpqw2zqvzs-2" value="&lt;b&gt;AWS&lt;/b&gt;" style="rounded=0;whiteSpace=wrap;html=1;fontStyle=0;fontSize=13;align=left;verticalAlign=top;spacingLeft=5;spacingRight=0;strokeColor=none;fillColor=#FF9A01;fontColor=#FFFFFF;" vertex="1" parent="1">
          <mxGeometry x="280" y="60" width="480" height="500" as="geometry" />
        </mxCell>
        <mxCell id="uQDy2xBUUUFpqw2zqvzs-3" value="&lt;b&gt;EC2 - Ubuntu&lt;/b&gt;" style="rounded=0;whiteSpace=wrap;html=1;fontStyle=0;fontSize=13;align=left;verticalAlign=top;spacingLeft=5;spacingRight=0;strokeColor=none;fillColor=#D74516;fontColor=#FFFFFF;" vertex="1" parent="1">
          <mxGeometry x="300" y="100" width="340" height="440" as="geometry" />
        </mxCell>
        <mxCell id="uQDy2xBUUUFpqw2zqvzs-4" value="&lt;b&gt;GitHub&lt;/b&gt;" style="rounded=0;whiteSpace=wrap;html=1;fontStyle=0;fontSize=13;align=left;verticalAlign=top;spacingLeft=5;spacingRight=0;strokeColor=none;fillColor=#24292F;fontColor=#FFFFFF;" vertex="1" parent="1">
          <mxGeometry x="40" y="280" width="120" height="220" as="geometry" />
        </mxCell>
        <mxCell id="uQDy2xBUUUFpqw2zqvzs-5" value="Architecture" style="text;html=1;strokeColor=none;fillColor=none;align=center;verticalAlign=middle;whiteSpace=wrap;rounded=0;fontStyle=1;fontSize=20;fontColor=#006600;" vertex="1" parent="1">
          <mxGeometry x="40" y="40" width="140" height="40" as="geometry" />
        </mxCell>
        <mxCell id="uQDy2xBUUUFpqw2zqvzs-6" style="edgeStyle=orthogonalEdgeStyle;rounded=0;orthogonalLoop=1;jettySize=auto;html=1;exitX=0.5;exitY=1;exitDx=0;exitDy=0;entryX=0.5;entryY=0;entryDx=0;entryDy=0;strokeColor=#FF66FF;fontColor=#FF66FF;endArrow=block;endFill=1;" edge="1" parent="1" source="uQDy2xBUUUFpqw2zqvzs-7" target="uQDy2xBUUUFpqw2zqvzs-10">
          <mxGeometry relative="1" as="geometry" />
        </mxCell>
        <mxCell id="uQDy2xBUUUFpqw2zqvzs-7" value="Repositories" style="rounded=0;whiteSpace=wrap;html=1;verticalAlign=middle;fontStyle=1;fillColor=#F5F5F5;fontColor=#000000;strokeColor=none;" vertex="1" parent="1">
          <mxGeometry x="60" y="320" width="80" height="40" as="geometry" />
        </mxCell>
        <mxCell id="uQDy2xBUUUFpqw2zqvzs-8" style="edgeStyle=orthogonalEdgeStyle;rounded=0;orthogonalLoop=1;jettySize=auto;html=1;exitX=0.5;exitY=1;exitDx=0;exitDy=0;entryX=0.5;entryY=0;entryDx=0;entryDy=0;strokeColor=#FF66FF;fontColor=#FF66FF;endArrow=block;endFill=1;" edge="1" parent="1" source="uQDy2xBUUUFpqw2zqvzs-10" target="uQDy2xBUUUFpqw2zqvzs-11">
          <mxGeometry relative="1" as="geometry" />
        </mxCell>
        <mxCell id="uQDy2xBUUUFpqw2zqvzs-9" style="edgeStyle=orthogonalEdgeStyle;rounded=0;orthogonalLoop=1;jettySize=auto;html=1;exitX=1;exitY=0.5;exitDx=0;exitDy=0;entryX=0;entryY=0.5;entryDx=0;entryDy=0;strokeColor=#FF66FF;fontColor=#FF66FF;endArrow=block;endFill=1;" edge="1" parent="1" source="uQDy2xBUUUFpqw2zqvzs-10" target="uQDy2xBUUUFpqw2zqvzs-12">
          <mxGeometry relative="1" as="geometry" />
        </mxCell>
        <mxCell id="uQDy2xBUUUFpqw2zqvzs-10" value="Actions" style="rounded=0;whiteSpace=wrap;html=1;verticalAlign=middle;fontStyle=1;fillColor=#F5F5F5;fontColor=#000000;strokeColor=none;" vertex="1" parent="1">
          <mxGeometry x="60" y="380" width="80" height="40" as="geometry" />
        </mxCell>
        <mxCell id="uQDy2xBUUUFpqw2zqvzs-11" value="Packages" style="rounded=0;whiteSpace=wrap;html=1;verticalAlign=middle;fontStyle=1;fillColor=#F5F5F5;fontColor=#000000;strokeColor=none;" vertex="1" parent="1">
          <mxGeometry x="60" y="440" width="80" height="40" as="geometry" />
        </mxCell>
        <mxCell id="uQDy2xBUUUFpqw2zqvzs-12" value="Slack" style="rounded=0;whiteSpace=wrap;html=1;verticalAlign=middle;fontStyle=1;fillColor=#3F0E40;fontColor=#ffffff;strokeColor=none;" vertex="1" parent="1">
          <mxGeometry x="180" y="380" width="80" height="40" as="geometry" />
        </mxCell>
        <mxCell id="uQDy2xBUUUFpqw2zqvzs-13" value="Gmail" style="rounded=0;whiteSpace=wrap;html=1;verticalAlign=middle;fontStyle=1;fillColor=#EA4336;fontColor=#ffffff;strokeColor=none;" vertex="1" parent="1">
          <mxGeometry x="180" y="440" width="80" height="40" as="geometry" />
        </mxCell>
        <mxCell id="uQDy2xBUUUFpqw2zqvzs-14" value="&lt;b&gt;Docker - Compose / Blue&lt;/b&gt;" style="rounded=0;whiteSpace=wrap;html=1;fontStyle=0;fontSize=13;align=left;verticalAlign=top;spacingLeft=5;spacingRight=0;strokeColor=none;fillColor=#2491E6;fontColor=#FFFFFF;" vertex="1" parent="1">
          <mxGeometry x="320" y="140" width="300" height="380" as="geometry" />
        </mxCell>
        <mxCell id="uQDy2xBUUUFpqw2zqvzs-15" value="&lt;b&gt;Spring - Tomcat&lt;/b&gt;" style="rounded=0;whiteSpace=wrap;html=1;fontStyle=0;fontSize=13;align=left;verticalAlign=top;spacingLeft=5;spacingRight=0;strokeColor=none;fillColor=#60A128;fontColor=#FFFFFF;" vertex="1" parent="1">
          <mxGeometry x="340" y="180" width="260" height="320" as="geometry" />
        </mxCell>
        <mxCell id="uQDy2xBUUUFpqw2zqvzs-16" value="Google&lt;br&gt;OAuth2" style="rounded=0;whiteSpace=wrap;html=1;verticalAlign=middle;fontStyle=1;fillColor=#EA4336;fontColor=#ffffff;strokeColor=none;" vertex="1" parent="1">
          <mxGeometry x="180" y="320" width="80" height="40" as="geometry" />
        </mxCell>
        <mxCell id="uQDy2xBUUUFpqw2zqvzs-17" value="&lt;b&gt;RDS&lt;br&gt;Postgres&lt;/b&gt;" style="rounded=0;whiteSpace=wrap;html=1;fontStyle=0;fontSize=13;align=center;verticalAlign=middle;spacingLeft=0;spacingRight=0;strokeColor=none;fillColor=#31648C;fontColor=#FFFFFF;" vertex="1" parent="1">
          <mxGeometry x="660" y="500" width="80" height="40" as="geometry" />
        </mxCell>
        <mxCell id="uQDy2xBUUUFpqw2zqvzs-18" style="edgeStyle=orthogonalEdgeStyle;rounded=0;orthogonalLoop=1;jettySize=auto;html=1;exitX=1;exitY=0.5;exitDx=0;exitDy=0;entryX=0.5;entryY=0;entryDx=0;entryDy=0;endArrow=block;endFill=1;strokeWidth=1;strokeColor=#FFFF00;" edge="1" parent="1" source="uQDy2xBUUUFpqw2zqvzs-21" target="uQDy2xBUUUFpqw2zqvzs-22">
          <mxGeometry relative="1" as="geometry">
            <Array as="points">
              <mxPoint x="470" y="400" />
            </Array>
          </mxGeometry>
        </mxCell>
        <mxCell id="uQDy2xBUUUFpqw2zqvzs-19" style="edgeStyle=orthogonalEdgeStyle;rounded=0;orthogonalLoop=1;jettySize=auto;html=1;exitX=0;exitY=0.5;exitDx=0;exitDy=0;entryX=1;entryY=0.5;entryDx=0;entryDy=0;endArrow=block;endFill=1;" edge="1" parent="1" source="uQDy2xBUUUFpqw2zqvzs-21" target="uQDy2xBUUUFpqw2zqvzs-12">
          <mxGeometry relative="1" as="geometry" />
        </mxCell>
        <mxCell id="uQDy2xBUUUFpqw2zqvzs-20" style="edgeStyle=orthogonalEdgeStyle;rounded=0;orthogonalLoop=1;jettySize=auto;html=1;exitX=0;exitY=0.5;exitDx=0;exitDy=0;entryX=1;entryY=0.5;entryDx=0;entryDy=0;endArrow=block;endFill=1;" edge="1" parent="1" source="uQDy2xBUUUFpqw2zqvzs-21" target="uQDy2xBUUUFpqw2zqvzs-13">
          <mxGeometry relative="1" as="geometry">
            <Array as="points">
              <mxPoint x="290" y="400" />
              <mxPoint x="290" y="460" />
            </Array>
          </mxGeometry>
        </mxCell>
        <mxCell id="uQDy2xBUUUFpqw2zqvzs-21" value="Notification" style="rounded=0;whiteSpace=wrap;html=1;verticalAlign=middle;fontStyle=1;strokeColor=none;" vertex="1" parent="1">
          <mxGeometry x="360" y="380" width="100" height="40" as="geometry" />
        </mxCell>
        <mxCell id="uQDy2xBUUUFpqw2zqvzs-22" value="PortableMQ&lt;br&gt;Spring" style="rounded=0;whiteSpace=wrap;html=1;verticalAlign=middle;fontStyle=1;strokeColor=none;fillColor=#6600CC;fontColor=#FFFFFF;direction=east;rotation=0;" vertex="1" parent="1">
          <mxGeometry x="360" y="440" width="220" height="40" as="geometry" />
        </mxCell>
        <mxCell id="uQDy2xBUUUFpqw2zqvzs-23" style="edgeStyle=orthogonalEdgeStyle;rounded=0;orthogonalLoop=1;jettySize=auto;html=1;exitX=1;exitY=0.5;exitDx=0;exitDy=0;entryX=0.5;entryY=0;entryDx=0;entryDy=0;endArrow=block;endFill=1;strokeWidth=1;strokeColor=#FFFF00;" edge="1" parent="1" source="uQDy2xBUUUFpqw2zqvzs-25" target="uQDy2xBUUUFpqw2zqvzs-22">
          <mxGeometry relative="1" as="geometry">
            <Array as="points">
              <mxPoint x="470" y="340" />
            </Array>
          </mxGeometry>
        </mxCell>
        <mxCell id="uQDy2xBUUUFpqw2zqvzs-24" style="edgeStyle=orthogonalEdgeStyle;rounded=0;orthogonalLoop=1;jettySize=auto;html=1;exitX=0;exitY=0.5;exitDx=0;exitDy=0;entryX=1;entryY=0.5;entryDx=0;entryDy=0;endArrow=block;endFill=1;" edge="1" parent="1" source="uQDy2xBUUUFpqw2zqvzs-25" target="uQDy2xBUUUFpqw2zqvzs-16">
          <mxGeometry relative="1" as="geometry" />
        </mxCell>
        <mxCell id="uQDy2xBUUUFpqw2zqvzs-25" value="Authentication" style="rounded=0;whiteSpace=wrap;html=1;verticalAlign=middle;fontStyle=1;strokeColor=none;" vertex="1" parent="1">
          <mxGeometry x="360" y="320" width="100" height="40" as="geometry" />
        </mxCell>
        <mxCell id="uQDy2xBUUUFpqw2zqvzs-26" style="edgeStyle=orthogonalEdgeStyle;rounded=0;orthogonalLoop=1;jettySize=auto;html=1;exitX=0;exitY=0.5;exitDx=0;exitDy=0;entryX=0.5;entryY=0;entryDx=0;entryDy=0;endArrow=block;endFill=1;strokeWidth=1;strokeColor=#FFFF00;" edge="1" parent="1" source="uQDy2xBUUUFpqw2zqvzs-27" target="uQDy2xBUUUFpqw2zqvzs-22">
          <mxGeometry relative="1" as="geometry">
            <Array as="points">
              <mxPoint x="470" y="370" />
            </Array>
          </mxGeometry>
        </mxCell>
        <mxCell id="uQDy2xBUUUFpqw2zqvzs-27" value="StudyNight" style="rounded=0;whiteSpace=wrap;html=1;verticalAlign=middle;fontStyle=1;strokeColor=none;" vertex="1" parent="1">
          <mxGeometry x="480" y="320" width="100" height="100" as="geometry" />
        </mxCell>
        <mxCell id="uQDy2xBUUUFpqw2zqvzs-28" value="" style="rounded=0;whiteSpace=wrap;html=1;fontStyle=0;fontSize=13;align=left;verticalAlign=top;spacingLeft=0;spacingRight=0;strokeColor=none;fillColor=#D74516;fontColor=#FFFFFF;" vertex="1" parent="1">
          <mxGeometry x="640" y="100" width="100" height="380" as="geometry" />
        </mxCell>
        <mxCell id="uQDy2xBUUUFpqw2zqvzs-29" style="edgeStyle=orthogonalEdgeStyle;rounded=0;orthogonalLoop=1;jettySize=auto;html=1;exitX=0.5;exitY=1;exitDx=0;exitDy=0;endArrow=block;endFill=1;strokeWidth=1;strokeColor=#FFFF00;" edge="1" parent="1" source="uQDy2xBUUUFpqw2zqvzs-31" target="uQDy2xBUUUFpqw2zqvzs-25">
          <mxGeometry relative="1" as="geometry">
            <Array as="points">
              <mxPoint x="470" y="310" />
              <mxPoint x="410" y="310" />
            </Array>
          </mxGeometry>
        </mxCell>
        <mxCell id="uQDy2xBUUUFpqw2zqvzs-30" style="edgeStyle=orthogonalEdgeStyle;rounded=0;orthogonalLoop=1;jettySize=auto;html=1;exitX=0.5;exitY=1;exitDx=0;exitDy=0;endArrow=block;endFill=1;strokeWidth=1;strokeColor=#FFFF00;" edge="1" parent="1" source="uQDy2xBUUUFpqw2zqvzs-31" target="uQDy2xBUUUFpqw2zqvzs-27">
          <mxGeometry relative="1" as="geometry">
            <Array as="points">
              <mxPoint x="470" y="310" />
              <mxPoint x="530" y="310" />
            </Array>
          </mxGeometry>
        </mxCell>
        <mxCell id="uQDy2xBUUUFpqw2zqvzs-31" value="Gateway" style="rounded=0;whiteSpace=wrap;html=1;verticalAlign=middle;fontStyle=1;strokeColor=none;" vertex="1" parent="1">
          <mxGeometry x="360" y="260" width="220" height="40" as="geometry" />
        </mxCell>
        <mxCell id="uQDy2xBUUUFpqw2zqvzs-32" style="edgeStyle=orthogonalEdgeStyle;rounded=0;orthogonalLoop=1;jettySize=auto;html=1;exitX=0;exitY=0.5;exitDx=0;exitDy=0;endArrow=block;endFill=1;strokeWidth=1;strokeColor=#FFFF00;" edge="1" parent="1" source="uQDy2xBUUUFpqw2zqvzs-33" target="uQDy2xBUUUFpqw2zqvzs-31">
          <mxGeometry relative="1" as="geometry">
            <Array as="points">
              <mxPoint x="470" y="220" />
            </Array>
          </mxGeometry>
        </mxCell>
        <mxCell id="uQDy2xBUUUFpqw2zqvzs-33" value="BFF" style="rounded=0;whiteSpace=wrap;html=1;verticalAlign=middle;fontStyle=1;strokeColor=none;" vertex="1" parent="1">
          <mxGeometry x="480" y="200" width="100" height="40" as="geometry" />
        </mxCell>
        <mxCell id="uQDy2xBUUUFpqw2zqvzs-34" style="edgeStyle=orthogonalEdgeStyle;rounded=0;orthogonalLoop=1;jettySize=auto;html=1;exitX=0;exitY=0.5;exitDx=0;exitDy=0;entryX=0.5;entryY=0;entryDx=0;entryDy=0;endArrow=block;endFill=1;strokeWidth=1;strokeColor=#FFFF00;" edge="1" parent="1" source="uQDy2xBUUUFpqw2zqvzs-36" target="uQDy2xBUUUFpqw2zqvzs-33">
          <mxGeometry relative="1" as="geometry" />
        </mxCell>
        <mxCell id="uQDy2xBUUUFpqw2zqvzs-35" style="edgeStyle=orthogonalEdgeStyle;rounded=0;orthogonalLoop=1;jettySize=auto;html=1;exitX=0.5;exitY=1;exitDx=0;exitDy=0;entryX=0.5;entryY=0;entryDx=0;entryDy=0;endArrow=block;endFill=1;strokeColor=#FFFF00;dashed=1;" edge="1" parent="1" source="uQDy2xBUUUFpqw2zqvzs-36" target="uQDy2xBUUUFpqw2zqvzs-37">
          <mxGeometry relative="1" as="geometry" />
        </mxCell>
        <mxCell id="uQDy2xBUUUFpqw2zqvzs-36" value="&lt;b&gt;Nginx&lt;/b&gt;" style="rounded=0;whiteSpace=wrap;html=1;fontStyle=0;fontSize=13;align=center;verticalAlign=middle;spacingLeft=0;spacingRight=0;strokeColor=none;fillColor=#009402;fontColor=#FFFFFF;" vertex="1" parent="1">
          <mxGeometry x="640" y="140" width="80" height="40" as="geometry" />
        </mxCell>
        <mxCell id="uQDy2xBUUUFpqw2zqvzs-37" value="&lt;b&gt;Green&lt;/b&gt;" style="rounded=0;whiteSpace=wrap;html=1;fontStyle=0;fontSize=13;align=center;verticalAlign=middle;spacingLeft=0;spacingRight=0;strokeColor=none;fillColor=#2491E6;fontColor=#FFFFFF;" vertex="1" parent="1">
          <mxGeometry x="640" y="200" width="80" height="40" as="geometry" />
        </mxCell>
        <mxCell id="uQDy2xBUUUFpqw2zqvzs-38" value="" style="endArrow=block;html=1;rounded=0;entryX=0.5;entryY=0;entryDx=0;entryDy=0;endFill=1;strokeWidth=1;strokeColor=#FFFF00;" edge="1" parent="1" target="uQDy2xBUUUFpqw2zqvzs-36">
          <mxGeometry width="50" height="50" relative="1" as="geometry">
            <mxPoint x="680" y="90" as="sourcePoint" />
            <mxPoint x="690" y="20" as="targetPoint" />
          </mxGeometry>
        </mxCell>
        <mxCell id="uQDy2xBUUUFpqw2zqvzs-39" value="https" style="text;html=1;strokeColor=none;fillColor=none;align=center;verticalAlign=middle;whiteSpace=wrap;rounded=0;fontColor=#FFFF00;" vertex="1" parent="1">
          <mxGeometry x="680" y="110" width="40" height="20" as="geometry" />
        </mxCell>
        <mxCell id="uQDy2xBUUUFpqw2zqvzs-40" value="properties" style="rounded=0;whiteSpace=wrap;html=1;verticalAlign=middle;fontStyle=1;strokeColor=#36393d;fillColor=#eeeeee;" vertex="1" parent="1">
          <mxGeometry x="640" y="380" width="80" height="40" as="geometry" />
        </mxCell>
        <mxCell id="uQDy2xBUUUFpqw2zqvzs-41" value="logs" style="rounded=0;whiteSpace=wrap;html=1;verticalAlign=middle;fontStyle=1;strokeColor=#36393d;fillColor=#eeeeee;" vertex="1" parent="1">
          <mxGeometry x="640" y="420" width="80" height="40" as="geometry" />
        </mxCell>
        <mxCell id="uQDy2xBUUUFpqw2zqvzs-42" style="edgeStyle=orthogonalEdgeStyle;rounded=0;orthogonalLoop=1;jettySize=auto;html=1;exitX=1;exitY=0.5;exitDx=0;exitDy=0;entryX=0;entryY=0.5;entryDx=0;entryDy=0;endArrow=block;endFill=1;strokeColor=#000000;strokeWidth=1;" edge="1" parent="1" source="uQDy2xBUUUFpqw2zqvzs-15" target="uQDy2xBUUUFpqw2zqvzs-17">
          <mxGeometry relative="1" as="geometry" />
        </mxCell>
        <mxCell id="uQDy2xBUUUFpqw2zqvzs-43" style="edgeStyle=orthogonalEdgeStyle;rounded=0;orthogonalLoop=1;jettySize=auto;html=1;exitX=1;exitY=0.5;exitDx=0;exitDy=0;entryX=0.5;entryY=0;entryDx=0;entryDy=0;endArrow=block;endFill=1;strokeColor=#000000;strokeWidth=1;" edge="1" parent="1" source="uQDy2xBUUUFpqw2zqvzs-15" target="uQDy2xBUUUFpqw2zqvzs-40">
          <mxGeometry relative="1" as="geometry" />
        </mxCell>
        <mxCell id="uQDy2xBUUUFpqw2zqvzs-44" value="" style="endArrow=block;html=1;rounded=0;entryX=0.5;entryY=0;entryDx=0;entryDy=0;endFill=1;strokeWidth=1;strokeColor=#FF66FF;fontColor=#FF66FF;" edge="1" parent="1">
          <mxGeometry width="50" height="50" relative="1" as="geometry">
            <mxPoint x="100" y="270" as="sourcePoint" />
            <mxPoint x="100" y="320" as="targetPoint" />
          </mxGeometry>
        </mxCell>
        <mxCell id="uQDy2xBUUUFpqw2zqvzs-45" value="push" style="text;html=1;strokeColor=none;fillColor=none;align=center;verticalAlign=middle;whiteSpace=wrap;rounded=0;fontColor=#FF66FF;" vertex="1" parent="1">
          <mxGeometry x="100" y="290" width="40" height="20" as="geometry" />
        </mxCell>
        <mxCell id="uQDy2xBUUUFpqw2zqvzs-46" style="edgeStyle=orthogonalEdgeStyle;rounded=0;orthogonalLoop=1;jettySize=auto;html=1;entryX=0.5;entryY=1;entryDx=0;entryDy=0;strokeColor=#FF66FF;fontColor=#FF66FF;endArrow=block;endFill=1;" edge="1" parent="1" target="uQDy2xBUUUFpqw2zqvzs-11">
          <mxGeometry relative="1" as="geometry">
            <mxPoint x="300" y="520" as="sourcePoint" />
            <Array as="points">
              <mxPoint x="300" y="520" />
              <mxPoint x="100" y="520" />
            </Array>
          </mxGeometry>
        </mxCell>
      </root>
    </mxGraphModel>
  </diagram>
</mxfile>
